<svg id="Layer_1" height="512" viewBox="0 0 512 512" width="512" xmlns="http://www.w3.org/2000/svg" data-name="Layer 1"><path d="m127.08 449h-67.87a30.256 30.256 0 0 0 -30.21 30v4h128v-4a30.007 30.007 0 0 0 -29.92-30z" fill="#4689d3"/><path d="m66 58h54v391h-54z" fill="#c79a83"/><path d="m65.96 28.82h54.37v28.91h-54.37z" fill="#e1b7a3"/><path d="m89.21 449h-30a30.256 30.256 0 0 0 -30.21 30v4h30v-4a30.256 30.256 0 0 1 30.21-30z" fill="#3c7cb5"/><path d="m66 58h30v391h-30z" fill="#a87c69"/><path d="m65.96 28.82h30v28.91h-30z" fill="#cc9e8b"/><path d="m452.79 449h-67.87a30.007 30.007 0 0 0 -29.92 30v4h128v-4a30.256 30.256 0 0 0 -30.21-30z" fill="#4689d3"/><path d="m391.67 28.82h54.37v28.91h-54.37z" fill="#e1b7a3"/><path d="m392 58h54v391h-54z" fill="#c79a83"/><path d="m490.78 258.64h-37.89l-61.04 86.3h98.93a4.229 4.229 0 0 0 4.22-4.23v-77.84a4.229 4.229 0 0 0 -4.22-4.23z" fill="#6d7486"/><path d="m490.78 104.27h-37.89l-61.04 86.29h98.93a4.223 4.223 0 0 0 4.22-4.23v-77.83a4.229 4.229 0 0 0 -4.22-4.23z" fill="#6d7486"/><path d="m369.7 104.27-61.03 86.29h83 .18l61.04-86.29z" fill="#eadf53"/><path d="m369.7 258.64-61.03 86.3h83 .18l61.04-86.3z" fill="#eadf53"/><path d="m369.7 104.27-61.03 86.29h-83.19l61.04-86.29z" fill="#6d7486"/><path d="m369.7 258.64-61.03 86.3h-83.19l61.04-86.3z" fill="#6d7486"/><path d="m286.52 104.27-61.04 86.29h-83.18l61.03-86.29z" fill="#eadf53"/><path d="m286.52 258.64-61.04 86.3h-83.18l61.03-86.3z" fill="#eadf53"/><path d="m120.33 104.27h-.18l-61.04 86.29h.56 82.63l61.03-86.29z" fill="#6d7486"/><path d="m120.33 258.64h-.18l-61.04 86.3h.56 82.63l61.03-86.3z" fill="#6d7486"/><path d="m21.22 104.27a4.229 4.229 0 0 0 -4.22 4.23v77.83a4.223 4.223 0 0 0 4.22 4.23h37.89l61.04-86.29z" fill="#eadf53"/><path d="m21.22 258.64a4.229 4.229 0 0 0 -4.22 4.23v77.84a4.229 4.229 0 0 0 4.22 4.23h37.89l61.04-86.3z" fill="#eadf53"/><path d="m21.22 190.56h30a4.223 4.223 0 0 1 -4.22-4.23v-77.83a4.229 4.229 0 0 1 4.22-4.23h-30a4.229 4.229 0 0 0 -4.22 4.23v77.83a4.223 4.223 0 0 0 4.22 4.23z" fill="#c6ba46"/><path d="m47 340.71v-77.84a4.229 4.229 0 0 1 4.22-4.23h-30a4.229 4.229 0 0 0 -4.22 4.23v77.84a4.229 4.229 0 0 0 4.22 4.23h30a4.229 4.229 0 0 1 -4.22-4.23z" fill="#c6ba46"/><g fill="#d4e1f4"><path d="m259.829 372.519h-91.756a6 6 0 1 1 0-12h91.756a6 6 0 0 1 0 12z"/><path d="m149.389 372.519h-4.884a6 6 0 0 1 0-12h4.884a6 6 0 0 1 0 12z"/></g></svg>